<?xml version="1.0" encoding="UTF-8"?>
<svg id="Layer_1" data-name="Layer 1" xmlns="http://www.w3.org/2000/svg" xmlns:xlink="http://www.w3.org/1999/xlink" viewBox="0 0 1580.94 999.57">
  <defs>
    <style>
      .cls-1 {
        fill: url(#linear-gradient-2);
      }

      .cls-2 {
        fill: url(#linear-gradient-4);
      }

      .cls-3 {
        fill: url(#linear-gradient-3);
      }

      .cls-4 {
        fill: url(#linear-gradient-5);
      }

      .cls-5 {
        fill: url(#linear-gradient-6);
      }

      .cls-6 {
        fill: url(#linear-gradient);
      }
    </style>
    <linearGradient id="linear-gradient" x1="970.83" y1="490.91" x2="1304.37" y2="490.91" gradientUnits="userSpaceOnUse">
      <stop offset="0" stop-color="#59b2e1"/>
      <stop offset="1" stop-color="#5dd3ff"/>
    </linearGradient>
    <linearGradient id="linear-gradient-2" x1="106.19" y1="490.75" x2="278.37" y2="490.75" gradientUnits="userSpaceOnUse">
      <stop offset="0" stop-color="#59b2e1"/>
      <stop offset="1" stop-color="#59b2e1"/>
    </linearGradient>
    <linearGradient id="linear-gradient-3" x1="297.99" y1="490.12" x2="462.29" y2="490.12" gradientUnits="userSpaceOnUse">
      <stop offset="0" stop-color="#59b2e1"/>
      <stop offset="1" stop-color="#59b2e1"/>
    </linearGradient>
    <linearGradient id="linear-gradient-4" x1="651.18" y1="490.84" x2="806.74" y2="490.84" gradientUnits="userSpaceOnUse">
      <stop offset="0" stop-color="#59b2e1"/>
      <stop offset="1" stop-color="#59b2e1"/>
    </linearGradient>
    <linearGradient id="linear-gradient-5" x1="483.08" y1="490.93" x2="638.18" y2="490.93" gradientUnits="userSpaceOnUse">
      <stop offset="0" stop-color="#59b2e1"/>
      <stop offset="1" stop-color="#59b2e1"/>
    </linearGradient>
    <linearGradient id="linear-gradient-6" x1="790.7" y1="485.61" x2="966.16" y2="485.61" gradientUnits="userSpaceOnUse">
      <stop offset="0" stop-color="#59b2e1"/>
      <stop offset="1" stop-color="#59b2e1"/>
    </linearGradient>
  </defs>
  <path class="cls-6" d="M1236.07,428.2l-60.76-.1c-1.06,0-2.02.61-2.48,1.56l-12.2,25.57-41.74,86.99c-.81,1.69-3.04,2.08-4.38.78l-28.36-27.56-22.16-21.2c-1.08-1.03-1.13-2.73-.13-3.83l52.9-57.71c1.61-1.75.37-4.59-2.01-4.59l-41.01-.09c-.74,0-1.45.29-1.96.82l-36.98,37.74c-5.54,5.65-10.24,11.21-15.78,16.77-1.72,1.73-4.68.51-4.68-1.93l-.15-50.69c0-1.52-1.25-2.75-2.77-2.73l-37.86.36c-1.5.01-2.71,1.24-2.71,2.74l.04,119.71c0,1.51,1.22,2.73,2.72,2.74l37.64.21c1.51,0,2.74-1.2,2.75-2.71l.46-46.93c.02-2.44,2.99-3.63,4.7-1.89l26.8,27.38,22.85,23.15c.51.52,1.22.81,1.95.82l85.9.06c1.08,0,2.06-.63,2.5-1.62l8.36-18.59c.44-.98,1.42-1.62,2.5-1.62l73.09.05c1.03,0,1.98.58,2.44,1.5l9.55,18.9c.47.93,1.42,1.51,2.46,1.5l44.09-.18c.64,0,2.94-.95,2.71-1.49-.15-.36-.78-1.88-1.33-2.89l-64.54-119.59c-.48-.88-1.4-1.44-2.41-1.44ZM1182.4,501.49l20.23-43.08c.97-2.07,3.91-2.11,4.93-.06l21.47,42.98c.91,1.82-.41,3.96-2.44,3.96l-41.7.1c-2.01,0-3.34-2.08-2.49-3.9Z"/>
  <path class="cls-1" d="M234.76,507.98c-4.11-3.74-6.8-7.48-10.51-11.66l-60.24-67.96-46.85-.49-10.97-.09v125.81s43.1-.14,43.1-.14l.65-82.15,53.99,59.11,21.52,23.34,52.91-.28v-125.37s-43.55-.22-43.55-.22l-.05,80.11Z"/>
  <path class="cls-3" d="M431.68,429.97c-33.67-8.87-69.86-8.76-103.64-.25-14.97,3.77-25.44,14.79-27.76,29.51-3.3,20.84-2.85,41.65.19,62.17,3.54,14.32,12.86,23.86,26.78,28.31,29.4,9.39,78.13,9.82,107.32.06,12.51-4.18,22.37-13.34,24.84-26.88,3.82-20.91,3.8-42.33.18-63.37-2.55-14.86-12.98-25.61-27.92-29.55ZM417.54,507.75c-.74,7.62-5.78,14.47-14.27,16-15.92,2.89-31.56,2.62-46.84-.39-7.91-1.56-13.95-8.03-14.44-16.16-.69-11.44-.58-22.9.11-34.29.5-8.36,5.87-14.21,13.98-15.81,15.46-3.04,31.52-3.31,46.92-.14,7.1,1.46,12.7,5.61,13.86,12.94,1.99,12.52,1.92,25.04.68,37.85Z"/>
  <path class="cls-2" d="M776.38,434.81c-11.59-3.23-23.6-6.33-36.14-6.39l-89.06-.48.13,125.69,93.83.13c13.02-1.48,25.17-3.08,37.28-6.56,12-5.79,20.25-14.99,22.36-28.97,2.55-16.89,2.58-33.2.37-49.44-2.24-16.49-13.12-28.83-28.76-33.97ZM757.05,517.67c-5.17,3.61-13.09,4.57-19.38,4.54l-43.9-.19.29-61.98c18.28-.11,35.26-.61,52.61,1.25,10.51,1.12,16.31,9.24,16.05,19.03.38,9.53,2.16,31.89-5.67,37.36Z"/>
  <path class="cls-4" d="M626.48,498.3c6.01-10.99,5.18-23.56,4.41-35.72-.9-14.21-8.5-25.4-22.13-30.02-8.64-2.43-17.87-4.31-27.36-4.32l-97.59-.16-.18,99.97c-.02,8.88-1.25,16.47.03,25.57l42.87-.31.3-35.24,21.22.72,22.4,21.73,14.61,13.27,53.12-.74-42.6-37.12c13.2-2.55,24.88-6.62,30.9-17.61ZM586.25,484.89c-.87,3.29-8.3,6.49-11.62,6.51l-47.86.24-.11-33.59,48.09-.3c3.91-.02,10.41,3.08,11.35,6.78,1.67,6.56,2.1,12.98.15,20.36Z"/>
  <path class="cls-5" d="M897.5,434.07l-18.02,47.42c-1.37-1.57-3-3.46-3.35-4.36l-17.47-44.44-67.96-14.97c3.1,6.71,6.66,9.73,10.31,14.38l58.44,74.52.18,46.82,44.81.05-.21-48.88,61.92-86.72-68.66,16.17Z"/>
</svg>